<?xml version="1.0" encoding="utf-8"?>
<!-- Uploaded to: SVG Repo, www.svgrepo.com, Generator: SVG Repo Mixer Tools -->
<!DOCTYPE svg PUBLIC "-//W3C//DTD SVG 1.1//EN" "http://www.w3.org/Graphics/SVG/1.1/DTD/svg11.dtd">
<svg fill="#000000" width="800px" height="800px" viewBox="0 0 1000 1000" version="1.1" xmlns="http://www.w3.org/2000/svg" xmlns:xlink="http://www.w3.org/1999/xlink"  enable-background="new 0 0 1000 1000" xml:space="preserve">

<g>
<g transform="translate(0.000000,511.000000) scale(0.100000,-0.100000)">
<path d="M3062.4,4531.4l-478.6-478.6l478.6-478.6l478.6-478.6l129,129l131.1,131.1l-264.3,264.3l-266.3,266.3h1785.2h1783.2v176.9v176.9H5055.7H3270.5l266.3,266.3l264.3,264.3l-120.7,120.7c-66.6,64.5-124.8,118.6-129,118.6C3545.1,5010,3324.6,4795.7,3062.4,4531.4z"/>
<path d="M1828.6,2055.4c-187.3-20.8-343.3-41.6-345.4-45.8c-2.1-4.2-79.1-172.7-168.5-374.5l-162.3-368.3l95.7-131.1c52-72.8,538.9-744.9,1084-1493.9c543.1-749,986.2-1364.9,982.1-1367c-4.2-4.2-197.7,79.1-430.7,183.1c-233,104-449.4,199.8-482.7,210.2c-60.3,22.9-62.4,20.8-566-349.6l-147.7-108.2l43.7-395.3c22.9-218.5,52-405.7,62.4-418.2c12.5-10.4,305.9-145.6,655.4-301.7l634.6-280.9l258-235.1c141.5-129,312.1-285.1,378.7-345.4l118.6-108.2l799-124.8c439-68.7,817.7-131.1,840.6-135.2c29.1-6.3,131-129,278.8-332.9c129-176.9,237.2-322.5,243.4-322.5c14.6,0,276.7,189.3,276.7,201.8c0,6.2-122.8,181-274.6,387c-149.8,208.1-274.6,380.8-276.7,382.9c0,2.1-387,64.5-861.4,139.4L4005-3541.6l-87.4,77c-47.9,43.7-212.2,191.4-362,328.8l-274.7,249.7L2694.1-2624l-588.8,262.2l-12.5,101.9c-8.3,56.2-18.7,149.8-25,206l-10.4,104l164.4,118.6c162.3,114.4,168.5,116.5,233,89.5c37.5-14.6,486.9-216.4,1002.9-445.3c513.9-228.9,936.3-414,938.4-412c0,2.1-636.7,884.3-1419,1957.9l-1419,1953.7l49.9,116.5c29.1,64.5,68.7,149.8,87.4,189.3l35.4,72.8l195.6,18.7c154,14.6,199.8,10.4,220.6-10.4c16.6-16.6,407.8-551.4,869.7-1188.1l842.7-1158.9l137.3,97.8c74.9,54.1,137.3,104,137.3,114.4c0,8.3-93.6,141.5-206,297.5l-206,283l83.2,183.1c95.7,208.1,85.3,201.8,378.7,214.3l122.8,4.2l208.1-285.1l208.1-283l141.5,104l143.6,104l-93.6,126.9c-49.9,70.8-116.5,164.4-147.7,206l-54.1,74.9l81.2,185.2l81.1,183.1l135.2,22.9c72.8,14.6,172.7,25,218.5,27l87.4,2.1l126.9-197.7c70.8-108.2,137.3-197.7,145.6-197.7c20.8,0,272.6,183.1,272.6,197.7c0,6.2-41.6,66.6-93.6,137.3c-52,70.7-93.6,137.3-93.6,151.9c0,12.5,33.3,99.9,74.9,193.5c85.3,191.4,79.1,187.3,370.4,199.7l124.8,4.2l630.4-865.6l630.4-865.6l260.1-944.6c143.6-520.2,268.4-965.4,280.9-990.4c14.6-33.3,470.2-676.2,532.6-753.2c4.2-4.1,68.7,37.5,143.6,93.6c85.3,62.4,133.2,110.3,124.8,129c-6.3,14.6-116.5,174.8-245.5,353.7L8364-2012.3l-266.3,969.6L7831.3-73.1l-694.9,955c-382.8,524.3-701.2,967.5-711.6,982.1c-12.5,22.9-89.5,18.7-418.2-16.6c-222.6-25-407.8-47.9-416.1-52c-6.2-4.2-43.7-83.2-83.2-178.9c-45.8-106.1-89.5-176.9-114.4-187.3c-22.9-8.3-195.6-41.6-384.9-72.8c-189.3-29.1-351.6-62.4-362-70.7c-10.4-10.4-52-95.7-95.7-191.4l-74.9-172.7l-395.3-35.4c-216.4-20.8-403.6-41.6-414.1-45.8c-12.5-4.2-54.1-81.2-91.5-170.6c-39.5-91.5-77-170.6-83.2-178.9c-6.3-6.2-274.7,349.6-597.2,790.7c-563.9,780.3-584.7,805.2-655.4,809.4C2198.9,2090.8,2013.8,2076.2,1828.6,2055.4z"/>
</g>
</g>
</svg>