<svg xmlns="http://www.w3.org/2000/svg"  viewBox="0 0 50 50" width="100px" height="100px"><path d="M 44.777344 2.9921875 C 44.655084 2.9925174 44.548172 3.0118262 44.441406 3.0273438 C 44.014343 3.0894137 43.494297 3.228619 42.515625 3.4902344 C 41.604829 3.7309575 39.574908 4.1937927 38.091797 4.4921875 C 34.169121 5.2725218 32.593846 6.2049842 30.849609 7.5136719 L 30.847656 7.515625 C 28.197429 9.5117586 27.019531 12.254406 27.019531 15.296875 C 27.019531 18.334385 28.687597 20.175107 28.839844 20.339844 C 28.289514 21.603619 27.72671 22.730301 27.212891 24.285156 C 26.044415 27.43646 25.179906 29.964338 24.599609 31.873047 L 24.597656 31.875 C 24.222428 33.126537 23.899471 34.116943 23.591797 35.050781 C 23.338781 34.150613 23.101534 33.32074 22.710938 31.794922 L 22.707031 31.78125 L 22.703125 31.769531 C 19.294491 19.77709 15.727777 12.510589 12.318359 8.7617188 C 10.457501 6.7005451 8.024345 4.8034036 6.1347656 4.1660156 C 5.8652148 4.0728961 5.6463436 4.0031256 5.3867188 3.9667969 C 5.2555561 3.9484436 5.1119002 3.9294284 4.8886719 3.9746094 C 4.6654436 4.0197903 4.2841814 4.2097272 4.109375 4.5683594 C 3.9345686 4.9269916 4.0006983 5.2336624 4.0566406 5.4121094 C 4.1125829 5.5905563 4.1798427 5.7026961 4.2480469 5.8105469 C 4.3844553 6.0262484 4.5415765 6.2148255 4.7441406 6.4433594 C 8.1428089 10.321014 12.787574 17.216231 16.482422 32.53125 L 16.486328 32.546875 L 16.490234 32.5625 C 17.048832 34.588632 18.326897 39.941321 18.720703 41.931641 L 18.720703 41.933594 C 18.949278 43.08553 19.189721 44.221826 19.390625 45.121094 C 19.491077 45.570728 19.580773 45.961373 19.65625 46.267578 C 19.73173 46.573783 19.770726 46.748606 19.853516 46.96875 L 19.863281 46.994141 L 19.875 47.019531 C 19.980589 47.259306 20.074463 47.368921 20.222656 47.523438 C 20.370849 47.677953 20.549983 47.862938 20.939453 47.966797 L 21.066406 48 L 25.457031 48 C 25.896213 48 26.245052 47.769969 26.453125 47.560547 C 26.661198 47.351125 26.789694 47.135708 26.908203 46.904297 C 27.145221 46.441475 27.325002 45.898936 27.505859 45.263672 C 27.867573 43.993144 28.204623 42.369306 28.5625 40.742188 C 29.278259 37.487922 30.068477 34.237658 31.042969 30.810547 L 31.044922 30.810547 L 31.044922 30.808594 C 31.873021 27.877362 32.61493 25.435583 33.267578 23.677734 C 33.593902 22.79881 33.898764 22.091827 34.164062 21.597656 C 34.419593 21.121685 34.655875 20.88687 34.664062 20.875 C 34.739072 20.85104 34.855836 20.81609 34.996094 20.78125 C 35.276608 20.71157 35.649628 20.634334 36.023438 20.572266 C 39.262484 20.03034 40.942846 18.922789 42.779297 16.625 C 44.09403 14.984915 44.720228 13.049591 45.025391 9.34375 L 45.025391 9.3417969 C 45.178902 7.4347434 45.24637 7.0541824 45.59375 5.9414062 L 45.595703 5.9375 L 45.595703 5.9335938 C 45.715007 5.5394179 45.816096 5.1656883 45.886719 4.8652344 C 45.922029 4.7150074 45.950143 4.586069 45.970703 4.4648438 C 45.980983 4.4042307 45.989884 4.3459255 45.996094 4.2734375 C 46.002294 4.2009495 46.049667 4.1716492 45.960938 3.8574219 L 45.947266 3.8144531 L 45.931641 3.7695312 C 45.862676 3.590651 45.552533 3.184065 45.208984 3.0683594 C 45.03721 3.0105065 44.899603 2.9918576 44.777344 2.9921875 z M 43.707031 5.2578125 C 43.697331 5.2905065 43.693574 5.3126931 43.683594 5.3457031 C 43.683594 5.3457031 43.683594 5.3476562 43.683594 5.3476562 C 43.682917 5.3498962 43.682341 5.3512756 43.681641 5.3535156 C 43.312795 6.5363174 43.187369 7.2427473 43.03125 9.1816406 L 43.033203 9.1796875 C 42.740369 12.735845 42.27397 14.061085 41.220703 15.375 L 41.21875 15.375 C 39.515598 17.506346 38.669713 18.101635 35.693359 18.599609 C 35.266895 18.670479 34.856568 18.757109 34.515625 18.841797 C 34.344882 18.884207 34.191932 18.924897 34.054688 18.96875 C 33.917442 19.0126 33.833083 19.02089 33.607422 19.162109 L 33.597656 19.167969 L 33.589844 19.171875 C 33.040327 19.530389 32.738544 20.024155 32.402344 20.650391 C 32.066143 21.276627 31.737754 22.052721 31.392578 22.982422 C 30.702226 24.841824 29.953042 27.313857 29.119141 30.265625 L 29.121094 30.263672 C 28.133585 33.736561 27.329663 37.028765 26.607422 40.3125 C 26.246298 41.954381 25.909067 43.566122 25.582031 44.714844 C 25.418513 45.289205 25.251857 45.752103 25.128906 45.992188 C 25.126006 45.997887 25.1278 45.9946 25.125 46 L 21.65625 46 C 21.63194 45.91304 21.630709 45.91524 21.599609 45.789062 C 21.529649 45.505237 21.440095 45.125538 21.341797 44.685547 C 21.145201 43.805565 20.909019 42.679033 20.683594 41.542969 C 20.264785 39.426284 19.017599 34.213702 18.425781 32.0625 L 18.423828 32.056641 C 15.376843 19.429812 11.64566 12.384005 8.4199219 7.9414062 C 9.2636374 8.6042587 10.13907 9.3313332 10.835938 10.103516 L 10.837891 10.105469 L 10.839844 10.107422 C 13.838426 13.404552 17.414012 20.474849 20.779297 32.314453 C 21.326274 34.450297 21.734121 35.961701 22.035156 36.949219 C 22.18649 37.445655 22.307638 37.807248 22.429688 38.09375 C 22.490707 38.237001 22.541823 38.356587 22.658203 38.519531 C 22.716393 38.601001 22.783651 38.701777 22.964844 38.822266 C 23.140444 38.939035 23.539007 39.04407 23.886719 38.927734 C 24.336006 38.769969 24.366483 38.606083 24.421875 38.525391 C 24.480725 38.439661 24.510865 38.378189 24.542969 38.314453 C 24.607169 38.186981 24.663265 38.053541 24.728516 37.890625 C 24.859016 37.564793 25.016728 37.131199 25.199219 36.597656 C 25.563888 35.531485 26.026743 34.077075 26.513672 32.453125 C 27.078696 30.594648 27.932332 28.091584 29.099609 24.945312 L 29.107422 24.929688 L 29.113281 24.912109 C 30.750561 19.957583 32.661658 16.652789 34.144531 14.597656 C 35.627405 12.542524 36.613281 11.789062 36.613281 11.789062 A 1.0001 1.0001 0 1 0 35.386719 10.210938 C 35.386719 10.210938 34.122861 11.208367 32.521484 13.427734 C 31.672123 14.604875 30.711531 16.205954 29.740234 18.15625 C 29.381793 17.512594 29.019531 16.584275 29.019531 15.296875 C 29.019531 12.731344 29.847009 10.773148 32.050781 9.1132812 C 33.724973 7.8572058 34.73562 7.1983829 38.484375 6.453125 L 38.486328 6.453125 C 40.014594 6.1456451 42.025534 5.6891908 43.029297 5.4238281 L 43.03125 5.4238281 L 43.033203 5.4238281 C 43.418597 5.3206387 43.451229 5.3219894 43.707031 5.2578125 z"/></svg>